# xmcd
# 
# Track frame offsets:
#     150
#     16303
#     46770
#     73209
#     105671
#     126826
#     153962
#     192503
#     221508
#     246066
#     266866
#     295217
# 
# Disc length: 4264
# 
# Revision: 4
# Processed by: cddbd v1.5.2PL0 Copyright (c) Steve Scherf et al.
# Submitted via: fre:ac v1.1beta1pre5
# 
DISCID=b110a60c
DTITLE=Andreas Franz - 03 - Eisige Nähe CD01
DYEAR=2010
DGENRE=Hörbuch
TTITLE0=Eisige Nähe CD01-01
TTITLE1=Eisige Nähe CD01-02
TTITLE2=Eisige Nähe CD01-03
TTITLE3=Eisige Nähe CD01-04
TTITLE4=Eisige Nähe CD01-05
TTITLE5=Eisige Nähe CD01-06
TTITLE6=Eisige Nähe CD01-07
TTITLE7=Eisige Nähe CD01-08
TTITLE8=Eisige Nähe CD01-09
TTITLE9=Eisige Nähe CD01-10
TTITLE10=Eisige Nähe CD01-11
TTITLE11=Eisige Nähe CD01-12
EXTD=YEAR: 2010
EXTT0=
EXTT1=
EXTT2=
EXTT3=
EXTT4=
EXTT5=
EXTT6=
EXTT7=
EXTT8=
EXTT9=
EXTT10=
EXTT11=
PLAYORDER=
